<svg width="75" height="75" viewBox="0 0 75 75" fill="none" xmlns="http://www.w3.org/2000/svg">
<path d="M0 0H75V67C75 71.4183 71.4183 75 67 75H0V0Z" fill="#91DFAC"/>
<path d="M57 46.89C57 49.0475 56.1801 50.9029 54.5405 52.4563C52.9871 53.9234 51.0022 54.657 48.5858 54.657C45.9105 54.657 43.6667 53.7077 41.8544 51.8091C40.0421 49.9105 39.1359 47.192 39.1359 43.6537C39.1359 36.6634 40.9051 31.2697 44.4434 27.4725C48.068 23.589 52.0378 21.4315 56.3527 21V27.0841C53.5912 27.6882 51.3042 29.2416 49.4919 31.7443C47.6796 34.247 46.7303 36.8792 46.644 39.6408C47.2481 39.2093 48.1111 38.9935 49.233 38.9935C51.4768 38.9935 53.3323 39.7271 54.7994 41.1942C56.2665 42.575 57 44.4736 57 46.89ZM34.8641 46.89C34.8641 49.0475 34.0442 50.9029 32.4045 52.4563C30.8511 53.9234 28.8662 54.657 26.4498 54.657C23.7745 54.657 21.5307 53.7077 19.7184 51.8091C17.9061 49.9105 17 47.192 17 43.6537C17 36.6634 18.7691 31.2697 22.3074 27.4725C25.932 23.589 29.9018 21.4315 34.2168 21V27.0841C31.4552 27.6882 29.1683 29.2416 27.356 31.7443C25.5437 34.247 24.5944 36.8792 24.5081 39.6408C25.1985 39.2093 26.0615 38.9935 27.0971 38.9935C29.3409 38.9935 31.1963 39.7271 32.6634 41.1942C34.1305 42.575 34.8641 44.4736 34.8641 46.89Z" fill="#181B19"/>
</svg>
